#N canvas 624 85 1920 966 10;
#X obj 26 43 tgl 30 0 empty empty empty 17 7 0 10 #00fc04 #000000 #000000 0 1;
#X msg 26 91 \; pd dsp \$1;
#X obj 82 406 vsl 50 128 0 1 0 0 empty empty empty 0 -9 0 10 #fc8000 #000000 #000000 0 1;
#X obj 174 711 *~;
#X obj 219 711 *~;
#N canvas 0 0 450 300 (subpatch) 0;
#X array channelL 1.81283e+07 float 2;
#X coords 0 1 1.81283e+07 -1 200 140 1;
#X restore 432 27 graph;
#N canvas 0 0 450 300 (subpatch) 0;
#X array channelR 1.81283e+07 float 2;
#X coords 0 1 1.81283e+07 -1 200 140 1;
#X restore 430 188 graph;
#X obj 188 67 bng 30 250 50 0 empty empty empty 17 7 0 10 #00fc04 #000000 #000000;
#X obj 187 127 openpanel;
#X msg 187 152 read -resize \$1 channelL channelR;
#X obj 187 176 soundfiler;
#X floatatom 201 203 12 0 0 0 - - - 0;
#X obj 187 248 expr 4410/$f1;
#X obj 202 225 s sampleSize;
#X floatatom 194 296 12 0 0 0 - - - 0;
#X obj 186 383 phasor~;
#X obj 218 403 r sampleSize;
#X obj 175 664 tabread4~ channelL;
#X obj 220 684 tabread4~ channelR;
#N canvas 793 205 450 276 META 0;
#X restore 430 946 pd META;
#X obj 305 464 snapshot~;
#X obj 305 402 tgl 30 0 empty empty empty 17 7 0 10 #00fc04 #000000 #000000 0 1;
#X obj 305 442 metro 50;
#X floatatom 305 487 12 0 0 0 - - - 0;
#X obj 305 527 /;
#X obj 333 506 r sampleSize;
#X floatatom 305 554 5 0 0 0 - - - 0;
#X obj 432 340 hsl 195 15 0 1 0 0 empty empty empty -2 -8 0 10 #fc0400 #000000 #000000 0 1;
#X obj 185 447 *~ 0.2;
#X obj 286 302 hsl 128 15 -0.001 0.001 0 0 empty empty empty -2 -8 0 10 #fcfcfc #000000 #000000 0 1;
#X floatatom 283 322 20 0 0 0 - - - 0;
#X msg 420 360 0;
#X msg 526 360 0.5;
#X msg 486 360 0.3;
#X msg 567 359 0.7;
#X msg 449 360 0.1;
#X msg 604 361 0.9;
#X msg 507 385 0.4;
#X msg 470 385 0.2;
#X msg 545 385 0.6;
#X msg 584 385 0.8;
#X text 224 84 PRESS to OPEN WAV.;
#X text 88 376 VOLUME;
#X text 61 50 ON/OFF;
#X text 340 408 ON/OFF for Time display in GRAPH;
#X text 640 338 TIME;
#X text 636 373 [TIME locations];
#X obj 288 762 writesf~ 2;
#X msg 555 742 start;
#X msg 410 692 stop;
#X msg 369 692 print;
#X text 399 737 1;
#X text 538 738 2;
#X text 408 712 CAMBIAR NOMBRE FICHERO CADA NUEVA REC.;
#X msg 417 740 open 02.wav;
#X text 289 247 >>glitch;
#X text 28 296 DO NOT MATCH number TO >>;
#X text 279 277 SLIDE FOR PLAYBACK;
#X obj -97 847 dac~ 1 2;
#X obj -328 323 +~;
#X obj -329 275 +~;
#X obj -329 300 +~;
#X obj -205 258 +~;
#X obj -328 354 +~;
#X obj -327 377 +~;
#X obj -329 254 +~;
#X obj -129 172 +~;
#X obj -218 170 +~;
#X obj -320 142 +~;
#X obj -358 172 +~;
#X obj -403 150 +~;
#X obj -358 203 +~;
#X obj -328 232 +~;
#X obj -182 387 osc~ 379.91;
#X obj -101 294 osc~ 292.238;
#X obj -201 290 osc~ 224.798;
#X obj -116 211 osc~ 172.922;
#X obj -204 211 osc~ 133.017;
#X obj -128 120 osc~ 102.321;
#X obj -218 99 osc~ 78.708;
#X obj -320 81 osc~ 60.544;
#X obj -403 81 osc~ 46.572;
#X obj -182 426 +~;
#X obj -101 348 +~;
#X obj -202 348 +~;
#X obj -115 260 +~;
#X obj -99 444 +~;
#X obj -388 114 osc~ 47;
#X obj -305 115 osc~ 61;
#X obj -113 142 osc~ 103;
#X obj -189 230 osc~ 134;
#X obj -101 234 osc~ 173;
#X obj -184 312 osc~ 225;
#X obj -85 317 osc~ 293;
#X obj -163 407 osc~ 380;
#X obj -85 420 osc~ 494;
#X obj -203 131 osc~ 79;
#X text 660 45 CORPUS INMATERIAL \, Miguel Oliveros et al. Madrid 2014;
#X obj -326 416 *~ 0.01;
#X obj -98 400 osc~ 493.88;
#X obj -286 628 *~;
#X obj -325 626 *~;
#X obj 14 406 vsl 50 128 0 1 0 0 empty empty empty 0 -9 0 10 #fc8000 #000000 #000000 0 1;
#X text 20 379 VOLUME;
#X connect 0 0 1 0;
#X connect 2 0 4 1;
#X connect 2 0 3 1;
#X connect 3 0 47 0;
#X connect 3 0 58 0;
#X connect 3 0 58 1;
#X connect 4 0 47 0;
#X connect 4 0 58 0;
#X connect 4 0 58 1;
#X connect 7 0 8 0;
#X connect 8 0 9 0;
#X connect 9 0 10 0;
#X connect 10 0 11 0;
#X connect 10 0 12 0;
#X connect 11 0 13 0;
#X connect 12 0 14 0;
#X connect 12 0 15 0;
#X connect 15 0 28 0;
#X connect 16 0 28 1;
#X connect 17 0 3 0;
#X connect 18 0 4 0;
#X connect 20 0 23 0;
#X connect 21 0 22 0;
#X connect 22 0 20 0;
#X connect 23 0 24 0;
#X connect 24 0 26 0;
#X connect 25 0 24 1;
#X connect 26 0 27 0;
#X connect 28 0 17 0;
#X connect 28 0 18 0;
#X connect 28 0 20 0;
#X connect 29 0 30 0;
#X connect 30 0 15 0;
#X connect 31 0 15 1;
#X connect 32 0 15 1;
#X connect 33 0 15 1;
#X connect 34 0 15 1;
#X connect 35 0 15 1;
#X connect 36 0 15 1;
#X connect 37 0 15 1;
#X connect 38 0 15 1;
#X connect 39 0 15 1;
#X connect 40 0 15 1;
#X connect 48 0 47 0;
#X connect 49 0 47 0;
#X connect 50 0 47 0;
#X connect 54 0 47 0;
#X connect 59 0 63 0;
#X connect 60 0 61 0;
#X connect 61 0 59 0;
#X connect 62 0 65 1;
#X connect 63 0 64 0;
#X connect 64 0 98 0;
#X connect 65 0 60 0;
#X connect 66 0 72 1;
#X connect 67 0 71 1;
#X connect 68 0 69 1;
#X connect 69 0 71 0;
#X connect 70 0 69 0;
#X connect 71 0 72 0;
#X connect 72 0 65 0;
#X connect 73 0 82 0;
#X connect 74 0 83 0;
#X connect 75 0 84 0;
#X connect 76 0 85 0;
#X connect 77 0 62 0;
#X connect 78 0 66 0;
#X connect 79 0 67 0;
#X connect 80 0 68 0;
#X connect 81 0 70 0;
#X connect 82 0 63 1;
#X connect 83 0 59 1;
#X connect 84 0 61 1;
#X connect 85 0 60 1;
#X connect 86 0 64 1;
#X connect 87 0 70 1;
#X connect 88 0 68 1;
#X connect 89 0 66 1;
#X connect 90 0 62 1;
#X connect 91 0 85 1;
#X connect 92 0 84 1;
#X connect 93 0 83 1;
#X connect 94 0 82 1;
#X connect 95 0 86 1;
#X connect 96 0 67 1;
#X connect 98 0 101 0;
#X connect 98 0 100 0;
#X connect 99 0 86 0;
#X connect 100 0 58 1;
#X connect 100 0 47 0;
#X connect 101 0 58 0;
#X connect 101 0 47 0;
#X connect 102 0 101 1;
#X connect 102 0 100 1;
