#N canvas 4 0 1920 966 10;
#X obj 26 43 tgl 30 0 empty empty empty 17 7 0 10 #00fc04 #000000 #000000 0 1;
#X msg 26 91 \; pd dsp \$1;
#X obj 380 716 vsl 50 128 0 1 0 0 empty empty empty 0 -9 0 10 #fc8000 #000000 #000000 0 1;
#X obj 178 848 *~;
#X obj 223 848 *~;
#N canvas 0 0 450 300 (subpatch) 0;
#X array channelL 1.46724e+07 float 2;
#X coords 0 1 1.46724e+07 -1 200 140 1;
#X restore 432 27 graph;
#N canvas 0 0 450 300 (subpatch) 0;
#X array channelR 1.46724e+07 float 2;
#X coords 0 1 1.46724e+07 -1 200 140 1;
#X restore 430 188 graph;
#X obj 188 67 bng 30 250 50 0 empty empty empty 17 7 0 10 #00fc04 #000000 #000000;
#X obj 187 127 openpanel;
#X msg 187 152 read -resize \$1 channelL channelR;
#X obj 187 176 soundfiler;
#X floatatom 201 203 12 0 0 0 - - - 0;
#X obj 187 248 expr 4410/$f1;
#X obj 202 225 s sampleSize;
#X floatatom 194 296 12 0 0 0 - - - 0;
#X obj 186 383 phasor~;
#X obj 218 403 r sampleSize;
#X obj 179 801 tabread4~ channelL;
#X obj 224 821 tabread4~ channelR;
#N canvas 793 205 450 276 META 0;
#X restore 479 658 pd META;
#X obj 305 464 snapshot~;
#X obj 305 402 tgl 30 0 empty empty empty 17 7 0 10 #00fc04 #000000 #000000 0 1;
#X obj 305 442 metro 50;
#X floatatom 305 487 12 0 0 0 - - - 0;
#X obj 305 527 /;
#X obj 333 506 r sampleSize;
#X floatatom 305 554 5 0 0 0 - - - 0;
#X obj 432 340 hsl 195 15 0 1 0 0 empty empty empty -2 -8 0 10 #fc0400 #000000 #000000 0 1;
#X obj 185 447 *~ 0.2;
#X obj 286 302 hsl 128 15 0 0.0008 0 0 empty empty empty -2 -8 0 10 #fcfcfc #000000 #000000 0 1;
#X floatatom 283 322 20 0 0 0 - - - 0;
#X msg 420 360 0;
#X msg 526 360 0.5;
#X msg 486 360 0.3;
#X msg 567 359 0.7;
#X msg 449 360 0.1;
#X msg 604 361 0.9;
#X msg 507 385 0.4;
#X msg 470 385 0.2;
#X msg 545 385 0.6;
#X msg 584 385 0.8;
#X text 224 84 PRESS to OPEN WAV.;
#X text 387 851 VOLUME;
#X text 61 50 ON/OFF;
#X text 340 408 ON/OFF for Time display in GRAPH;
#X text 640 338 TIME;
#X text 636 373 [TIME locations];
#X obj 341 611 writesf~ 2;
#X msg 608 591 start;
#X msg 463 541 stop;
#X msg 422 541 print;
#X text 452 586 1;
#X text 591 587 2;
#X text 461 561 CAMBIAR NOMBRE FICHERO CADA NUEVA REC.;
#X msg 470 589 open 02.wav;
#X text 289 247 >>glitch;
#X text 28 296 DO NOT MATCH number TO >>;
#X text 279 277 SLIDE FOR PLAYBACK;
#X obj 178 905 dac~ 1 2;
#X connect 0 0 1 0;
#X connect 2 0 4 1;
#X connect 2 0 3 1;
#X connect 3 0 47 0;
#X connect 3 0 58 0;
#X connect 3 0 58 1;
#X connect 4 0 47 0;
#X connect 4 0 58 0;
#X connect 4 0 58 1;
#X connect 7 0 8 0;
#X connect 8 0 9 0;
#X connect 9 0 10 0;
#X connect 10 0 11 0;
#X connect 10 0 12 0;
#X connect 11 0 13 0;
#X connect 12 0 14 0;
#X connect 12 0 15 0;
#X connect 15 0 28 0;
#X connect 16 0 28 1;
#X connect 17 0 3 0;
#X connect 18 0 4 0;
#X connect 20 0 23 0;
#X connect 21 0 22 0;
#X connect 22 0 20 0;
#X connect 23 0 24 0;
#X connect 24 0 26 0;
#X connect 25 0 24 1;
#X connect 26 0 27 0;
#X connect 28 0 17 0;
#X connect 28 0 18 0;
#X connect 28 0 20 0;
#X connect 29 0 30 0;
#X connect 30 0 15 0;
#X connect 31 0 15 1;
#X connect 32 0 15 1;
#X connect 33 0 15 1;
#X connect 34 0 15 1;
#X connect 35 0 15 1;
#X connect 36 0 15 1;
#X connect 37 0 15 1;
#X connect 38 0 15 1;
#X connect 39 0 15 1;
#X connect 40 0 15 1;
#X connect 48 0 47 0;
#X connect 49 0 47 0;
#X connect 50 0 47 0;
#X connect 54 0 47 0;
